<svg xmlns="http://www.w3.org/2000/svg" xmlns:xlink="http://www.w3.org/1999/xlink" width="480" zoomAndPan="magnify" viewBox="0 0 360 143.999998" height="192" preserveAspectRatio="xMidYMid meet" version="1.0"><defs><g/></defs><rect x="-36" width="432" fill="#ffffff" y="-14.4" height="172.799997" fill-opacity="1"/><rect x="-36" width="432" fill="#ffffff" y="-14.4" height="172.799997" fill-opacity="1"/><rect x="-36" width="432" fill="#ffffff" y="-14.4" height="172.799997" fill-opacity="1"/><rect x="-36" width="432" fill="#ffffff" y="-14.4" height="172.799997" fill-opacity="1"/><path fill="#e33d44" d="M 116.339844 29.460938 L 333.839844 29.460938 L 333.839844 114.210938 L 116.339844 114.210938 L 116.339844 29.460938 " fill-opacity="1" fill-rule="nonzero"/><path fill="#38b6ff" d="M 33.414062 35.816406 L 106.914062 35.816406 L 106.914062 109.316406 L 33.414062 109.316406 L 33.414062 35.816406 " fill-opacity="1" fill-rule="nonzero"/><g fill="#ffffff" fill-opacity="1"><g transform="translate(182.076863, 66.324999)"><g><path d="M 1.328125 0 L 1.328125 -13.6875 L 10.265625 -13.6875 L 10.265625 -11.265625 L 3.90625 -11.265625 L 3.90625 -8.34375 L 9.125 -8.34375 L 9.125 -5.921875 L 3.90625 -5.921875 L 3.90625 -2.40625 L 10.265625 -2.40625 L 10.265625 0 Z M 1.328125 0 "/></g></g></g><g fill="#ffffff" fill-opacity="1"><g transform="translate(193.284576, 66.324999)"><g><path d="M 0.1875 0 L 4.78125 -6.921875 L 0.328125 -13.6875 L 3.5 -13.6875 L 6.40625 -9.125 L 9.265625 -13.6875 L 12.46875 -13.6875 L 8 -6.921875 L 12.578125 0 L 9.40625 0 L 6.40625 -4.71875 L 3.375 0 Z M 0.1875 0 "/></g></g></g><g fill="#ffffff" fill-opacity="1"><g transform="translate(206.049968, 66.324999)"><g><path d="M 0.375 0 L 4.5625 -13.6875 L 8.421875 -13.6875 L 12.59375 0 L 9.9375 0 L 6.21875 -12.0625 L 6.703125 -12.0625 L 3.046875 0 Z M 2.890625 -2.84375 L 2.890625 -5.265625 L 10.109375 -5.265625 L 10.109375 -2.84375 Z M 2.890625 -2.84375 "/></g></g></g><g fill="#ffffff" fill-opacity="1"><g transform="translate(219.024317, 66.324999)"><g><path d="M 1.328125 0 L 1.328125 -13.6875 L 3.640625 -13.6875 L 8.171875 -4.59375 L 12.6875 -13.6875 L 15.015625 -13.6875 L 15.015625 0 L 12.59375 0 L 12.59375 -8.171875 L 8.625 0 L 7.71875 0 L 3.75 -8.171875 L 3.75 0 Z M 1.328125 0 "/></g></g></g><g fill="#ffffff" fill-opacity="1"><g transform="translate(235.360974, 66.324999)"><g><path d="M 1.328125 0 L 1.328125 -13.6875 L 7.109375 -13.6875 C 7.242188 -13.6875 7.421875 -13.679688 7.640625 -13.671875 C 7.867188 -13.660156 8.070312 -13.640625 8.25 -13.609375 C 9.0625 -13.472656 9.726562 -13.195312 10.25 -12.78125 C 10.769531 -12.375 11.15625 -11.859375 11.40625 -11.234375 C 11.65625 -10.617188 11.78125 -9.925781 11.78125 -9.15625 C 11.78125 -8.394531 11.65625 -7.703125 11.40625 -7.078125 C 11.15625 -6.453125 10.769531 -5.929688 10.25 -5.515625 C 9.726562 -5.109375 9.0625 -4.84375 8.25 -4.71875 C 8.070312 -4.6875 7.867188 -4.664062 7.640625 -4.65625 C 7.410156 -4.644531 7.234375 -4.640625 7.109375 -4.640625 L 3.90625 -4.640625 L 3.90625 0 Z M 3.90625 -7.046875 L 6.984375 -7.046875 C 7.117188 -7.046875 7.265625 -7.050781 7.421875 -7.0625 C 7.585938 -7.082031 7.734375 -7.109375 7.859375 -7.140625 C 8.210938 -7.234375 8.484375 -7.394531 8.671875 -7.625 C 8.859375 -7.851562 8.988281 -8.101562 9.0625 -8.375 C 9.132812 -8.644531 9.171875 -8.90625 9.171875 -9.15625 C 9.171875 -9.40625 9.132812 -9.664062 9.0625 -9.9375 C 8.988281 -10.21875 8.859375 -10.46875 8.671875 -10.6875 C 8.484375 -10.914062 8.210938 -11.078125 7.859375 -11.171875 C 7.734375 -11.210938 7.585938 -11.238281 7.421875 -11.25 C 7.265625 -11.257812 7.117188 -11.265625 6.984375 -11.265625 L 3.90625 -11.265625 Z M 3.90625 -7.046875 "/></g></g></g><g fill="#ffffff" fill-opacity="1"><g transform="translate(247.70845, 66.324999)"><g><path d="M 1.515625 0 L 1.515625 -13.6875 L 4.109375 -13.6875 L 4.109375 -2.40625 L 10 -2.40625 L 10 0 Z M 1.515625 0 "/></g></g></g><g fill="#ffffff" fill-opacity="1"><g transform="translate(257.985347, 66.324999)"><g><path d="M 1.328125 0 L 1.328125 -13.6875 L 10.265625 -13.6875 L 10.265625 -11.265625 L 3.90625 -11.265625 L 3.90625 -8.34375 L 9.125 -8.34375 L 9.125 -5.921875 L 3.90625 -5.921875 L 3.90625 -2.40625 L 10.265625 -2.40625 L 10.265625 0 Z M 1.328125 0 "/></g></g></g><g fill="#ffffff" fill-opacity="1"><g transform="translate(269.182326, 66.324999)"><g/></g></g><g fill="#ffffff" fill-opacity="1"><g transform="translate(162.553426, 92.574997)"><g><path d="M 0.375 0 L 4.5625 -13.6875 L 8.421875 -13.6875 L 12.59375 0 L 9.9375 0 L 6.21875 -12.0625 L 6.703125 -12.0625 L 3.046875 0 Z M 2.890625 -2.84375 L 2.890625 -5.265625 L 10.109375 -5.265625 L 10.109375 -2.84375 Z M 2.890625 -2.84375 "/></g></g></g><g fill="#ffffff" fill-opacity="1"><g transform="translate(175.527775, 92.574997)"><g><path d="M 1.328125 0 L 1.328125 -13.6875 L 7.109375 -13.6875 C 7.242188 -13.6875 7.421875 -13.679688 7.640625 -13.671875 C 7.867188 -13.660156 8.070312 -13.640625 8.25 -13.609375 C 9.0625 -13.472656 9.726562 -13.195312 10.25 -12.78125 C 10.769531 -12.375 11.15625 -11.859375 11.40625 -11.234375 C 11.65625 -10.617188 11.78125 -9.925781 11.78125 -9.15625 C 11.78125 -8.394531 11.65625 -7.703125 11.40625 -7.078125 C 11.15625 -6.453125 10.769531 -5.929688 10.25 -5.515625 C 9.726562 -5.109375 9.0625 -4.84375 8.25 -4.71875 C 8.070312 -4.6875 7.867188 -4.664062 7.640625 -4.65625 C 7.410156 -4.644531 7.234375 -4.640625 7.109375 -4.640625 L 3.90625 -4.640625 L 3.90625 0 Z M 3.90625 -7.046875 L 6.984375 -7.046875 C 7.117188 -7.046875 7.265625 -7.050781 7.421875 -7.0625 C 7.585938 -7.082031 7.734375 -7.109375 7.859375 -7.140625 C 8.210938 -7.234375 8.484375 -7.394531 8.671875 -7.625 C 8.859375 -7.851562 8.988281 -8.101562 9.0625 -8.375 C 9.132812 -8.644531 9.171875 -8.90625 9.171875 -9.15625 C 9.171875 -9.40625 9.132812 -9.664062 9.0625 -9.9375 C 8.988281 -10.21875 8.859375 -10.46875 8.671875 -10.6875 C 8.484375 -10.914062 8.210938 -11.078125 7.859375 -11.171875 C 7.734375 -11.210938 7.585938 -11.238281 7.421875 -11.25 C 7.265625 -11.257812 7.117188 -11.265625 6.984375 -11.265625 L 3.90625 -11.265625 Z M 3.90625 -7.046875 "/></g></g></g><g fill="#ffffff" fill-opacity="1"><g transform="translate(187.875252, 92.574997)"><g><path d="M 1.328125 0 L 1.328125 -13.6875 L 7.109375 -13.6875 C 7.242188 -13.6875 7.421875 -13.679688 7.640625 -13.671875 C 7.867188 -13.660156 8.070312 -13.640625 8.25 -13.609375 C 9.0625 -13.472656 9.726562 -13.195312 10.25 -12.78125 C 10.769531 -12.375 11.15625 -11.859375 11.40625 -11.234375 C 11.65625 -10.617188 11.78125 -9.925781 11.78125 -9.15625 C 11.78125 -8.394531 11.65625 -7.703125 11.40625 -7.078125 C 11.15625 -6.453125 10.769531 -5.929688 10.25 -5.515625 C 9.726562 -5.109375 9.0625 -4.84375 8.25 -4.71875 C 8.070312 -4.6875 7.867188 -4.664062 7.640625 -4.65625 C 7.410156 -4.644531 7.234375 -4.640625 7.109375 -4.640625 L 3.90625 -4.640625 L 3.90625 0 Z M 3.90625 -7.046875 L 6.984375 -7.046875 C 7.117188 -7.046875 7.265625 -7.050781 7.421875 -7.0625 C 7.585938 -7.082031 7.734375 -7.109375 7.859375 -7.140625 C 8.210938 -7.234375 8.484375 -7.394531 8.671875 -7.625 C 8.859375 -7.851562 8.988281 -8.101562 9.0625 -8.375 C 9.132812 -8.644531 9.171875 -8.90625 9.171875 -9.15625 C 9.171875 -9.40625 9.132812 -9.664062 9.0625 -9.9375 C 8.988281 -10.21875 8.859375 -10.46875 8.671875 -10.6875 C 8.484375 -10.914062 8.210938 -11.078125 7.859375 -11.171875 C 7.734375 -11.210938 7.585938 -11.238281 7.421875 -11.25 C 7.265625 -11.257812 7.117188 -11.265625 6.984375 -11.265625 L 3.90625 -11.265625 Z M 3.90625 -7.046875 "/></g></g></g><g fill="#ffffff" fill-opacity="1"><g transform="translate(200.222728, 92.574997)"><g><path d="M 1.515625 0 L 1.515625 -13.6875 L 4.109375 -13.6875 L 4.109375 -2.40625 L 10 -2.40625 L 10 0 Z M 1.515625 0 "/></g></g></g><g fill="#ffffff" fill-opacity="1"><g transform="translate(210.499625, 92.574997)"><g><path d="M 1.515625 0 L 1.515625 -13.6875 L 4.109375 -13.6875 L 4.109375 0 Z M 1.515625 0 "/></g></g></g><g fill="#ffffff" fill-opacity="1"><g transform="translate(216.122473, 92.574997)"><g><path d="M 7.203125 0.28125 C 5.835938 0.28125 4.65625 -0.015625 3.65625 -0.609375 C 2.664062 -1.203125 1.898438 -2.035156 1.359375 -3.109375 C 0.828125 -4.179688 0.5625 -5.425781 0.5625 -6.84375 C 0.5625 -8.257812 0.828125 -9.5 1.359375 -10.5625 C 1.898438 -11.632812 2.664062 -12.46875 3.65625 -13.0625 C 4.65625 -13.664062 5.835938 -13.96875 7.203125 -13.96875 C 8.773438 -13.96875 10.09375 -13.578125 11.15625 -12.796875 C 12.226562 -12.015625 12.976562 -10.960938 13.40625 -9.640625 L 10.8125 -8.90625 C 10.5625 -9.738281 10.132812 -10.382812 9.53125 -10.84375 C 8.925781 -11.300781 8.148438 -11.53125 7.203125 -11.53125 C 6.335938 -11.53125 5.613281 -11.335938 5.03125 -10.953125 C 4.445312 -10.566406 4.007812 -10.019531 3.71875 -9.3125 C 3.425781 -8.613281 3.28125 -7.789062 3.28125 -6.84375 C 3.28125 -5.894531 3.425781 -5.066406 3.71875 -4.359375 C 4.007812 -3.660156 4.445312 -3.113281 5.03125 -2.71875 C 5.613281 -2.332031 6.335938 -2.140625 7.203125 -2.140625 C 8.148438 -2.140625 8.925781 -2.367188 9.53125 -2.828125 C 10.132812 -3.296875 10.5625 -3.941406 10.8125 -4.765625 L 13.40625 -4.046875 C 12.976562 -2.710938 12.226562 -1.65625 11.15625 -0.875 C 10.09375 -0.101562 8.773438 0.28125 7.203125 0.28125 Z M 7.203125 0.28125 "/></g></g></g><g fill="#ffffff" fill-opacity="1"><g transform="translate(230.293577, 92.574997)"><g><path d="M 0.375 0 L 4.5625 -13.6875 L 8.421875 -13.6875 L 12.59375 0 L 9.9375 0 L 6.21875 -12.0625 L 6.703125 -12.0625 L 3.046875 0 Z M 2.890625 -2.84375 L 2.890625 -5.265625 L 10.109375 -5.265625 L 10.109375 -2.84375 Z M 2.890625 -2.84375 "/></g></g></g><g fill="#ffffff" fill-opacity="1"><g transform="translate(243.267926, 92.574997)"><g><path d="M 4.5 0 L 4.5 -11.265625 L 0.1875 -11.265625 L 0.1875 -13.6875 L 11.40625 -13.6875 L 11.40625 -11.265625 L 7.09375 -11.265625 L 7.09375 0 Z M 4.5 0 "/></g></g></g><g fill="#ffffff" fill-opacity="1"><g transform="translate(254.85556, 92.574997)"><g><path d="M 1.515625 0 L 1.515625 -13.6875 L 4.109375 -13.6875 L 4.109375 0 Z M 1.515625 0 "/></g></g></g><g fill="#ffffff" fill-opacity="1"><g transform="translate(260.478408, 92.574997)"><g><path d="M 7.203125 0.28125 C 5.835938 0.28125 4.65625 -0.015625 3.65625 -0.609375 C 2.664062 -1.203125 1.898438 -2.035156 1.359375 -3.109375 C 0.828125 -4.179688 0.5625 -5.425781 0.5625 -6.84375 C 0.5625 -8.257812 0.828125 -9.5 1.359375 -10.5625 C 1.898438 -11.632812 2.664062 -12.46875 3.65625 -13.0625 C 4.65625 -13.664062 5.835938 -13.96875 7.203125 -13.96875 C 8.566406 -13.96875 9.742188 -13.664062 10.734375 -13.0625 C 11.722656 -12.46875 12.484375 -11.632812 13.015625 -10.5625 C 13.554688 -9.5 13.828125 -8.257812 13.828125 -6.84375 C 13.828125 -5.425781 13.554688 -4.179688 13.015625 -3.109375 C 12.484375 -2.035156 11.722656 -1.203125 10.734375 -0.609375 C 9.742188 -0.015625 8.566406 0.28125 7.203125 0.28125 Z M 7.203125 -2.140625 C 8.066406 -2.128906 8.785156 -2.316406 9.359375 -2.703125 C 9.941406 -3.085938 10.375 -3.632812 10.65625 -4.34375 C 10.945312 -5.0625 11.09375 -5.894531 11.09375 -6.84375 C 11.09375 -7.789062 10.945312 -8.613281 10.65625 -9.3125 C 10.375 -10.007812 9.941406 -10.550781 9.359375 -10.9375 C 8.785156 -11.320312 8.066406 -11.519531 7.203125 -11.53125 C 6.335938 -11.539062 5.613281 -11.351562 5.03125 -10.96875 C 4.457031 -10.582031 4.023438 -10.035156 3.734375 -9.328125 C 3.453125 -8.617188 3.3125 -7.789062 3.3125 -6.84375 C 3.3125 -5.894531 3.453125 -5.070312 3.734375 -4.375 C 4.023438 -3.675781 4.457031 -3.132812 5.03125 -2.75 C 5.613281 -2.363281 6.335938 -2.160156 7.203125 -2.140625 Z M 7.203125 -2.140625 "/></g></g></g><g fill="#ffffff" fill-opacity="1"><g transform="translate(274.877467, 92.574997)"><g><path d="M 1.328125 0 L 1.328125 -13.6875 L 3.953125 -13.6875 L 9.90625 -4.5625 L 9.90625 -13.6875 L 12.515625 -13.6875 L 12.515625 0 L 9.90625 0 L 3.953125 -9.125 L 3.953125 0 Z M 1.328125 0 "/></g></g></g><g fill="#ffffff" fill-opacity="1"><g transform="translate(288.717485, 92.574997)"><g/></g></g><g fill="#ffffff" fill-opacity="1"><g transform="translate(227.533891, 121.824996)"><g/></g></g></svg>
