<svg width="84" height="23" viewBox="0 0 84 23" fill="none" xmlns="http://www.w3.org/2000/svg">
<rect width="84" height="23" fill="#E5E5E5"/>
<path d="M8.5348 5.375H8.07244C8.0451 5.24201 7.99725 5.12518 7.92889 5.0245C7.86177 4.92383 7.77974 4.83931 7.68279 4.77095C7.58709 4.70135 7.48082 4.64915 7.36399 4.61435C7.24716 4.57955 7.12536 4.56214 6.99858 4.56214C6.7674 4.56214 6.55797 4.62056 6.37029 4.73739C6.18386 4.85423 6.03533 5.02637 5.92472 5.25382C5.81534 5.48127 5.76065 5.7603 5.76065 6.09091C5.76065 6.42152 5.81534 6.70055 5.92472 6.928C6.03533 7.15545 6.18386 7.32759 6.37029 7.44442C6.55797 7.56126 6.7674 7.61967 6.99858 7.61967C7.12536 7.61967 7.24716 7.60227 7.36399 7.56747C7.48082 7.53267 7.58709 7.48109 7.68279 7.41273C7.77974 7.34313 7.86177 7.25799 7.92889 7.15732C7.99725 7.0554 8.0451 6.93857 8.07244 6.80682H8.5348C8.5 7.00195 8.43661 7.17658 8.34464 7.3307C8.25266 7.48482 8.13832 7.61594 8.0016 7.72408C7.86488 7.83097 7.71138 7.91238 7.5411 7.96831C7.37207 8.02424 7.19123 8.0522 6.99858 8.0522C6.67294 8.0522 6.38335 7.97266 6.12979 7.81357C5.87624 7.65447 5.67676 7.42827 5.53134 7.13494C5.38592 6.84162 5.31321 6.49361 5.31321 6.09091C5.31321 5.68821 5.38592 5.3402 5.53134 5.04688C5.67676 4.75355 5.87624 4.52734 6.12979 4.36825C6.38335 4.20916 6.67294 4.12962 6.99858 4.12962C7.19123 4.12962 7.37207 4.15758 7.5411 4.21351C7.71138 4.26944 7.86488 4.35147 8.0016 4.45961C8.13832 4.56649 8.25266 4.697 8.34464 4.85112C8.43661 5.00399 8.5 5.17862 8.5348 5.375ZM9.7443 4.18182V8H9.28194V4.18182H9.7443ZM10.4625 4.59197V4.18182H13.3262V4.59197H12.1255V8H11.6632V4.59197H10.4625ZM13.7116 4.18182H14.2411L15.3 5.96413H15.3448L16.4037 4.18182H16.9332L15.5536 6.42649V8H15.0912V6.42649L13.7116 4.18182ZM22.2294 6.09091C22.2294 6.49361 22.1566 6.84162 22.0112 7.13494C21.8658 7.42827 21.6663 7.65447 21.4128 7.81357C21.1592 7.97266 20.8696 8.0522 20.544 8.0522C20.2184 8.0522 19.9288 7.97266 19.6752 7.81357C19.4217 7.65447 19.2222 7.42827 19.0767 7.13494C18.9313 6.84162 18.8586 6.49361 18.8586 6.09091C18.8586 5.68821 18.9313 5.3402 19.0767 5.04688C19.2222 4.75355 19.4217 4.52734 19.6752 4.36825C19.9288 4.20916 20.2184 4.12962 20.544 4.12962C20.8696 4.12962 21.1592 4.20916 21.4128 4.36825C21.6663 4.52734 21.8658 4.75355 22.0112 5.04688C22.1566 5.3402 22.2294 5.68821 22.2294 6.09091ZM21.7819 6.09091C21.7819 5.7603 21.7266 5.48127 21.616 5.25382C21.5066 5.02637 21.3581 4.85423 21.1704 4.73739C20.984 4.62056 20.7752 4.56214 20.544 4.56214C20.3128 4.56214 20.1034 4.62056 19.9157 4.73739C19.7293 4.85423 19.5807 5.02637 19.4701 5.25382C19.3608 5.48127 19.3061 5.7603 19.3061 6.09091C19.3061 6.42152 19.3608 6.70055 19.4701 6.928C19.5807 7.15545 19.7293 7.32759 19.9157 7.44442C20.1034 7.56126 20.3128 7.61967 20.544 7.61967C20.7752 7.61967 20.984 7.56126 21.1704 7.44442C21.3581 7.32759 21.5066 7.15545 21.616 6.928C21.7266 6.70055 21.7819 6.42152 21.7819 6.09091ZM23.0068 8V4.18182H25.2962V4.59197H23.4691V5.8821H25.1247V6.29226H23.4691V8H23.0068Z" fill="black"/>
<path d="M5.15909 18V9.27273H5.95597V17.2841H10.1151V18H5.15909ZM18.7241 13.6364C18.7241 14.5455 18.5621 15.3366 18.2383 16.0099C17.9144 16.6804 17.4684 17.2003 16.9002 17.5696C16.3349 17.9361 15.6843 18.1193 14.9485 18.1193C14.2127 18.1193 13.5607 17.9361 12.9925 17.5696C12.4272 17.2003 11.9826 16.6804 11.6587 16.0099C11.3377 15.3366 11.1772 14.5455 11.1772 13.6364C11.1772 12.7273 11.3377 11.9375 11.6587 11.267C11.9826 10.5937 12.4286 10.0739 12.9968 9.70739C13.565 9.33807 14.2156 9.15341 14.9485 9.15341C15.6843 9.15341 16.3349 9.33807 16.9002 9.70739C17.4684 10.0739 17.9144 10.5937 18.2383 11.267C18.5621 11.9375 18.7241 12.7273 18.7241 13.6364ZM17.9485 13.6364C17.9485 12.8551 17.8178 12.1861 17.5565 11.6293C17.2951 11.0696 16.9386 10.642 16.4869 10.3466C16.0352 10.0511 15.5224 9.90341 14.9485 9.90341C14.3775 9.90341 13.8661 10.0511 13.4144 10.3466C12.9627 10.642 12.6048 11.0682 12.3406 11.625C12.0792 12.1818 11.9485 12.8523 11.9485 13.6364C11.9485 14.4176 12.0792 15.0866 12.3406 15.6435C12.6019 16.2003 12.9585 16.6278 13.4102 16.9261C13.8619 17.2216 14.3746 17.3693 14.9485 17.3693C15.5224 17.3693 16.0352 17.2216 16.4869 16.9261C16.9414 16.6307 17.2994 16.2045 17.5607 15.6477C17.8221 15.0881 17.9513 14.4176 17.9485 13.6364ZM27.4482 9.27273V18H26.6726L21.5163 10.6918H21.4482V18H20.6513V9.27273H21.4226L26.5959 16.5895H26.6641V9.27273H27.4482ZM35.8068 12C35.7273 11.7102 35.6108 11.4389 35.4574 11.1861C35.304 10.9304 35.1136 10.7074 34.8864 10.517C34.6619 10.3239 34.402 10.1733 34.1065 10.0653C33.8139 9.95739 33.4872 9.90341 33.1264 9.90341C32.5582 9.90341 32.0497 10.0511 31.6009 10.3466C31.152 10.642 30.7969 11.0682 30.5355 11.625C30.277 12.1818 30.1477 12.8523 30.1477 13.6364C30.1477 14.4176 30.2784 15.0866 30.5398 15.6435C30.8011 16.2003 31.1591 16.6278 31.6136 16.9261C32.071 17.2216 32.5938 17.3693 33.1818 17.3693C33.7188 17.3693 34.1932 17.25 34.6051 17.0114C35.017 16.7727 35.3381 16.4318 35.5682 15.9886C35.8011 15.5455 35.9148 15.0185 35.9091 14.4077L36.1648 14.4886H33.3693V13.7727H36.6847V14.4886C36.6847 15.233 36.5341 15.8764 36.233 16.419C35.9318 16.9616 35.5185 17.3807 34.9929 17.6761C34.4673 17.9716 33.8636 18.1193 33.1818 18.1193C32.4205 18.1193 31.7543 17.9361 31.1832 17.5696C30.6122 17.2003 30.1676 16.6804 29.8494 16.0099C29.5341 15.3366 29.3764 14.5455 29.3764 13.6364C29.3764 12.9517 29.4673 12.3338 29.6491 11.7827C29.831 11.2315 30.0881 10.7599 30.4205 10.3679C30.7557 9.97585 31.152 9.67614 31.6094 9.46875C32.0668 9.25852 32.5724 9.15341 33.1264 9.15341C33.6037 9.15341 34.0398 9.22869 34.4347 9.37926C34.8324 9.52983 35.1818 9.73722 35.483 10.0014C35.7869 10.2628 36.0355 10.5653 36.2287 10.9091C36.4247 11.25 36.5568 11.6136 36.625 12H35.8068Z" fill="#116295"/>
<path d="M38.3647 18V9.27273H41.7056C42.3363 9.27273 42.8604 9.37216 43.2781 9.57102C43.6985 9.76705 44.0124 10.0355 44.2198 10.3764C44.43 10.7173 44.5352 11.1037 44.5352 11.5355C44.5352 11.8906 44.467 12.1946 44.3306 12.4474C44.1942 12.6974 44.011 12.9006 43.7809 13.0568C43.5508 13.2131 43.2937 13.3253 43.0096 13.3935V13.4787C43.3192 13.4957 43.6161 13.5909 43.9002 13.7642C44.1871 13.9347 44.4215 14.1761 44.6033 14.4886C44.7852 14.8011 44.8761 15.179 44.8761 15.6222C44.8761 16.0739 44.7667 16.4801 44.5479 16.8409C44.3292 17.1989 43.9996 17.4815 43.5593 17.6889C43.119 17.8963 42.565 18 41.8974 18H38.3647ZM39.9457 16.679H41.646C42.2198 16.679 42.6332 16.5696 42.886 16.3509C43.1417 16.1293 43.2695 15.8452 43.2695 15.4986C43.2695 15.2401 43.2056 15.0071 43.0778 14.7997C42.9499 14.5895 42.7681 14.4247 42.5323 14.3054C42.2965 14.1832 42.0153 14.1222 41.6886 14.1222H39.9457V16.679ZM39.9457 12.9844H41.5096C41.7823 12.9844 42.0281 12.9347 42.2468 12.8352C42.4656 12.733 42.6374 12.5895 42.7624 12.4048C42.8903 12.2173 42.9542 11.9957 42.9542 11.7401C42.9542 11.402 42.8349 11.1236 42.5962 10.9048C42.3604 10.6861 42.0096 10.5767 41.5437 10.5767H39.9457V12.9844ZM46.2514 18V9.27273H51.9276V10.598H47.8324V12.9673H51.6335V14.2926H47.8324V16.6747H51.9616V18H46.2514ZM54.6612 18H52.9737L56.0462 9.27273H57.9979L61.0746 18H59.3871L57.0561 11.0625H56.9879L54.6612 18ZM54.7166 14.5781H59.3189V15.848H54.7166V14.5781ZM69.2841 12.2173H67.6903C67.6449 11.956 67.5611 11.7244 67.4389 11.5227C67.3168 11.3182 67.1648 11.1449 66.983 11.0028C66.8011 10.8608 66.5938 10.7543 66.3608 10.6832C66.1307 10.6094 65.8821 10.5724 65.6151 10.5724C65.1406 10.5724 64.7202 10.6918 64.3537 10.9304C63.9872 11.1662 63.7003 11.5128 63.4929 11.9702C63.2855 12.4247 63.1818 12.9801 63.1818 13.6364C63.1818 14.304 63.2855 14.8665 63.4929 15.3239C63.7031 15.7784 63.9901 16.1222 64.3537 16.3551C64.7202 16.5852 65.1392 16.7003 65.6108 16.7003C65.8722 16.7003 66.1165 16.6662 66.3438 16.598C66.5739 16.527 66.7798 16.4233 66.9616 16.2869C67.1463 16.1506 67.3011 15.983 67.4261 15.7841C67.554 15.5852 67.642 15.358 67.6903 15.1023L69.2841 15.1108C69.2244 15.5256 69.0952 15.9148 68.8963 16.2784C68.7003 16.642 68.4432 16.9631 68.125 17.2415C67.8068 17.517 67.4347 17.733 67.0085 17.8892C66.5824 18.0426 66.1094 18.1193 65.5895 18.1193C64.8224 18.1193 64.1378 17.9418 63.5355 17.5866C62.9332 17.2315 62.4588 16.7188 62.1122 16.0483C61.7656 15.3778 61.5923 14.5739 61.5923 13.6364C61.5923 12.696 61.767 11.892 62.1165 11.2244C62.4659 10.554 62.9418 10.0412 63.544 9.68608C64.1463 9.33097 64.8281 9.15341 65.5895 9.15341C66.0753 9.15341 66.527 9.22159 66.9446 9.35795C67.3622 9.49432 67.7344 9.6946 68.0611 9.95881C68.3878 10.2202 68.6563 10.5412 68.8665 10.9219C69.0795 11.2997 69.2188 11.7315 69.2841 12.2173ZM70.7319 18V9.27273H72.3129V12.9673H76.3569V9.27273H77.9421V18H76.3569V14.2926H72.3129V18H70.7319Z" fill="#10B8D8"/>
</svg>
