<svg width="75" height="16" viewBox="0 0 75 16" fill="none" xmlns="http://www.w3.org/2000/svg">
<rect width="75" height="16" fill="#E5E5E5"/>
<rect x="-26" y="-19" width="277" height="189" fill="white"/>
<path d="M4.5348 2.375H4.07244C4.0451 2.24201 3.99725 2.12518 3.92889 2.0245C3.86177 1.92383 3.77974 1.83931 3.68279 1.77095C3.58709 1.70135 3.48082 1.64915 3.36399 1.61435C3.24716 1.57955 3.12536 1.56214 2.99858 1.56214C2.7674 1.56214 2.55797 1.62056 2.37029 1.73739C2.18386 1.85423 2.03533 2.02637 1.92472 2.25382C1.81534 2.48127 1.76065 2.7603 1.76065 3.09091C1.76065 3.42152 1.81534 3.70055 1.92472 3.928C2.03533 4.15545 2.18386 4.32759 2.37029 4.44442C2.55797 4.56126 2.7674 4.61967 2.99858 4.61967C3.12536 4.61967 3.24716 4.60227 3.36399 4.56747C3.48082 4.53267 3.58709 4.48109 3.68279 4.41273C3.77974 4.34313 3.86177 4.25799 3.92889 4.15732C3.99725 4.0554 4.0451 3.93857 4.07244 3.80682H4.5348C4.5 4.00195 4.43661 4.17658 4.34464 4.3307C4.25266 4.48482 4.13832 4.61594 4.0016 4.72408C3.86488 4.83097 3.71138 4.91238 3.5411 4.96831C3.37207 5.02424 3.19123 5.0522 2.99858 5.0522C2.67294 5.0522 2.38335 4.97266 2.12979 4.81357C1.87624 4.65447 1.67676 4.42827 1.53134 4.13494C1.38592 3.84162 1.31321 3.49361 1.31321 3.09091C1.31321 2.68821 1.38592 2.3402 1.53134 2.04688C1.67676 1.75355 1.87624 1.52734 2.12979 1.36825C2.38335 1.20916 2.67294 1.12962 2.99858 1.12962C3.19123 1.12962 3.37207 1.15758 3.5411 1.21351C3.71138 1.26944 3.86488 1.35147 4.0016 1.45961C4.13832 1.56649 4.25266 1.697 4.34464 1.85112C4.43661 2.00399 4.5 2.17862 4.5348 2.375ZM5.7443 1.18182V5H5.28194V1.18182H5.7443ZM6.46254 1.59197V1.18182H9.32617V1.59197H8.12553V5H7.66317V1.59197H6.46254ZM9.71163 1.18182H10.2411L11.3 2.96413H11.3448L12.4037 1.18182H12.9332L11.5536 3.42649V5H11.0912V3.42649L9.71163 1.18182ZM18.2294 3.09091C18.2294 3.49361 18.1566 3.84162 18.0112 4.13494C17.8658 4.42827 17.6663 4.65447 17.4128 4.81357C17.1592 4.97266 16.8696 5.0522 16.544 5.0522C16.2184 5.0522 15.9288 4.97266 15.6752 4.81357C15.4217 4.65447 15.2222 4.42827 15.0767 4.13494C14.9313 3.84162 14.8586 3.49361 14.8586 3.09091C14.8586 2.68821 14.9313 2.3402 15.0767 2.04688C15.2222 1.75355 15.4217 1.52734 15.6752 1.36825C15.9288 1.20916 16.2184 1.12962 16.544 1.12962C16.8696 1.12962 17.1592 1.20916 17.4128 1.36825C17.6663 1.52734 17.8658 1.75355 18.0112 2.04688C18.1566 2.3402 18.2294 2.68821 18.2294 3.09091ZM17.7819 3.09091C17.7819 2.7603 17.7266 2.48127 17.616 2.25382C17.5066 2.02637 17.3581 1.85423 17.1704 1.73739C16.984 1.62056 16.7752 1.56214 16.544 1.56214C16.3128 1.56214 16.1034 1.62056 15.9157 1.73739C15.7293 1.85423 15.5807 2.02637 15.4701 2.25382C15.3608 2.48127 15.3061 2.7603 15.3061 3.09091C15.3061 3.42152 15.3608 3.70055 15.4701 3.928C15.5807 4.15545 15.7293 4.32759 15.9157 4.44442C16.1034 4.56126 16.3128 4.61967 16.544 4.61967C16.7752 4.61967 16.984 4.56126 17.1704 4.44442C17.3581 4.32759 17.5066 4.15545 17.616 3.928C17.7266 3.70055 17.7819 3.42152 17.7819 3.09091ZM19.0068 5V1.18182H21.2962V1.59197H19.4691V2.8821H21.1247V3.29226H19.4691V5H19.0068Z" fill="black"/>
<path d="M1.15909 15V6.27273H1.95597V14.2841H6.11506V15H1.15909ZM14.7241 10.6364C14.7241 11.5455 14.5621 12.3366 14.2383 13.0099C13.9144 13.6804 13.4684 14.2003 12.9002 14.5696C12.3349 14.9361 11.6843 15.1193 10.9485 15.1193C10.2127 15.1193 9.56072 14.9361 8.99254 14.5696C8.4272 14.2003 7.9826 13.6804 7.65874 13.0099C7.33771 12.3366 7.1772 11.5455 7.1772 10.6364C7.1772 9.72727 7.33771 8.9375 7.65874 8.26705C7.9826 7.59375 8.42862 7.07386 8.9968 6.70739C9.56499 6.33807 10.2156 6.15341 10.9485 6.15341C11.6843 6.15341 12.3349 6.33807 12.9002 6.70739C13.4684 7.07386 13.9144 7.59375 14.2383 8.26705C14.5621 8.9375 14.7241 9.72727 14.7241 10.6364ZM13.9485 10.6364C13.9485 9.85511 13.8178 9.18608 13.5565 8.62926C13.2951 8.0696 12.9386 7.64205 12.4869 7.34659C12.0352 7.05114 11.5224 6.90341 10.9485 6.90341C10.3775 6.90341 9.86612 7.05114 9.41442 7.34659C8.96271 7.64205 8.60476 8.06818 8.34055 8.625C8.07919 9.18182 7.94851 9.85227 7.94851 10.6364C7.94851 11.4176 8.07919 12.0866 8.34055 12.6435C8.60192 13.2003 8.95845 13.6278 9.41016 13.9261C9.86186 14.2216 10.3746 14.3693 10.9485 14.3693C11.5224 14.3693 12.0352 14.2216 12.4869 13.9261C12.9414 13.6307 13.2994 13.2045 13.5607 12.6477C13.8221 12.0881 13.9513 11.4176 13.9485 10.6364ZM23.4482 6.27273V15H22.6726L17.5163 7.69176H17.4482V15H16.6513V6.27273H17.4226L22.5959 13.5895H22.6641V6.27273H23.4482ZM31.8068 9C31.7273 8.71023 31.6108 8.43892 31.4574 8.18608C31.304 7.9304 31.1136 7.70739 30.8864 7.51705C30.6619 7.32386 30.402 7.1733 30.1065 7.06534C29.8139 6.95739 29.4872 6.90341 29.1264 6.90341C28.5582 6.90341 28.0497 7.05114 27.6009 7.34659C27.152 7.64205 26.7969 8.06818 26.5355 8.625C26.277 9.18182 26.1477 9.85227 26.1477 10.6364C26.1477 11.4176 26.2784 12.0866 26.5398 12.6435C26.8011 13.2003 27.1591 13.6278 27.6136 13.9261C28.071 14.2216 28.5938 14.3693 29.1818 14.3693C29.7188 14.3693 30.1932 14.25 30.6051 14.0114C31.017 13.7727 31.3381 13.4318 31.5682 12.9886C31.8011 12.5455 31.9148 12.0185 31.9091 11.4077L32.1648 11.4886H29.3693V10.7727H32.6847V11.4886C32.6847 12.233 32.5341 12.8764 32.233 13.419C31.9318 13.9616 31.5185 14.3807 30.9929 14.6761C30.4673 14.9716 29.8636 15.1193 29.1818 15.1193C28.4205 15.1193 27.7543 14.9361 27.1832 14.5696C26.6122 14.2003 26.1676 13.6804 25.8494 13.0099C25.5341 12.3366 25.3764 11.5455 25.3764 10.6364C25.3764 9.9517 25.4673 9.33381 25.6491 8.78267C25.831 8.23153 26.0881 7.75994 26.4205 7.3679C26.7557 6.97585 27.152 6.67614 27.6094 6.46875C28.0668 6.25852 28.5724 6.15341 29.1264 6.15341C29.6037 6.15341 30.0398 6.22869 30.4347 6.37926C30.8324 6.52983 31.1818 6.73722 31.483 7.00142C31.7869 7.26278 32.0355 7.56534 32.2287 7.90909C32.4247 8.25 32.5568 8.61364 32.625 9H31.8068Z" fill="#116295"/>
<path d="M34.3647 15V6.27273H37.7056C38.3363 6.27273 38.8604 6.37216 39.2781 6.57102C39.6985 6.76705 40.0124 7.03551 40.2198 7.37642C40.43 7.71733 40.5352 8.10369 40.5352 8.53551C40.5352 8.89062 40.467 9.1946 40.3306 9.44744C40.1942 9.69744 40.011 9.90057 39.7809 10.0568C39.5508 10.2131 39.2937 10.3253 39.0096 10.3935V10.4787C39.3192 10.4957 39.6161 10.5909 39.9002 10.7642C40.1871 10.9347 40.4215 11.1761 40.6033 11.4886C40.7852 11.8011 40.8761 12.179 40.8761 12.6222C40.8761 13.0739 40.7667 13.4801 40.5479 13.8409C40.3292 14.1989 39.9996 14.4815 39.5593 14.6889C39.119 14.8963 38.565 15 37.8974 15H34.3647ZM35.9457 13.679H37.646C38.2198 13.679 38.6332 13.5696 38.886 13.3509C39.1417 13.1293 39.2695 12.8452 39.2695 12.4986C39.2695 12.2401 39.2056 12.0071 39.0778 11.7997C38.9499 11.5895 38.7681 11.4247 38.5323 11.3054C38.2965 11.1832 38.0153 11.1222 37.6886 11.1222H35.9457V13.679ZM35.9457 9.98438H37.5096C37.7823 9.98438 38.0281 9.93466 38.2468 9.83523C38.4656 9.73295 38.6374 9.58949 38.7624 9.40483C38.8903 9.21733 38.9542 8.99574 38.9542 8.74006C38.9542 8.40199 38.8349 8.12358 38.5962 7.90483C38.3604 7.68608 38.0096 7.5767 37.5437 7.5767H35.9457V9.98438ZM42.2514 15V6.27273H47.9276V7.59801H43.8324V9.96733H47.6335V11.2926H43.8324V13.6747H47.9616V15H42.2514ZM50.6612 15H48.9737L52.0462 6.27273H53.9979L57.0746 15H55.3871L53.0561 8.0625H52.9879L50.6612 15ZM50.7166 11.5781H55.3189V12.848H50.7166V11.5781ZM65.2841 9.21733H63.6903C63.6449 8.95597 63.5611 8.72443 63.4389 8.52273C63.3168 8.31818 63.1648 8.14489 62.983 8.00284C62.8011 7.8608 62.5938 7.75426 62.3608 7.68324C62.1307 7.60938 61.8821 7.57244 61.6151 7.57244C61.1406 7.57244 60.7202 7.69176 60.3537 7.9304C59.9872 8.16619 59.7003 8.51278 59.4929 8.97017C59.2855 9.42472 59.1818 9.98011 59.1818 10.6364C59.1818 11.304 59.2855 11.8665 59.4929 12.3239C59.7031 12.7784 59.9901 13.1222 60.3537 13.3551C60.7202 13.5852 61.1392 13.7003 61.6108 13.7003C61.8722 13.7003 62.1165 13.6662 62.3438 13.598C62.5739 13.527 62.7798 13.4233 62.9616 13.2869C63.1463 13.1506 63.3011 12.983 63.4261 12.7841C63.554 12.5852 63.642 12.358 63.6903 12.1023L65.2841 12.1108C65.2244 12.5256 65.0952 12.9148 64.8963 13.2784C64.7003 13.642 64.4432 13.9631 64.125 14.2415C63.8068 14.517 63.4347 14.733 63.0085 14.8892C62.5824 15.0426 62.1094 15.1193 61.5895 15.1193C60.8224 15.1193 60.1378 14.9418 59.5355 14.5866C58.9332 14.2315 58.4588 13.7188 58.1122 13.0483C57.7656 12.3778 57.5923 11.5739 57.5923 10.6364C57.5923 9.69602 57.767 8.89205 58.1165 8.22443C58.4659 7.55398 58.9418 7.04119 59.544 6.68608C60.1463 6.33097 60.8281 6.15341 61.5895 6.15341C62.0753 6.15341 62.527 6.22159 62.9446 6.35795C63.3622 6.49432 63.7344 6.6946 64.0611 6.95881C64.3878 7.22017 64.6563 7.54119 64.8665 7.92188C65.0795 8.29972 65.2188 8.73153 65.2841 9.21733ZM66.7319 15V6.27273H68.3129V9.96733H72.3569V6.27273H73.9421V15H72.3569V11.2926H68.3129V15H66.7319Z" fill="#10B8D8"/>
</svg>
